<svg xmlns="http://www.w3.org/2000/svg" fill="#6953a8" stroke="#6953a8"  viewBox="0 0 165.96 112.85"><defs></defs><g ><g><path  d="M77.43,81.1l-1-.28h0ZM69,98.35l-.79-.62h0Zm-12.68,10.2.41.91h0Zm-31.5,0-.42.91h0ZM12.32,98.35l-.78.62ZM4,81.1l-1,.27H3ZM4,31.75,5,32ZM12.32,14.5l-.78-.62ZM24.85,4.38l.42.9h0Zm31.5,0-.42.9h0ZM69,14.5l-.79.62h0Zm8.4,17.25-1,.28h0ZM59.65,36.93l-1,.21ZM55,24.63l-.85.52h0Zm-6.6-6.38-.45.89h0Zm-15.52,0,.43.9h0Zm-6.53,6.38-.85-.53Zm-4.58,12.3-1-.22h0Zm0,39-1,.2h0Zm4.58,12.29-.85.53Zm6.53,6.46-.46.89h0Zm15.52,0,.43.9h0ZM55,88.22l-.84-.53h0ZM79.5,56.43a87.51,87.51,0,0,1-3,24.39l1.91.56A89,89,0,0,0,81.5,56.43Zm-3,24.39a48.61,48.61,0,0,1-8.22,16.91L69.81,99a50.6,50.6,0,0,0,8.58-17.59ZM68.24,97.73a32.87,32.87,0,0,1-12.31,9.91l.84,1.82A35,35,0,0,0,69.81,99Zm-12.3,9.91a36.67,36.67,0,0,1-15.34,3.21v2a38.68,38.68,0,0,0,16.16-3.39ZM40.6,110.85a36.67,36.67,0,0,1-15.34-3.21l-.82,1.82a38.68,38.68,0,0,0,16.16,3.39Zm-15.33-3.2a33.4,33.4,0,0,1-12.16-9.92L11.54,99a35.27,35.27,0,0,0,12.89,10.49ZM13.11,97.73A49.35,49.35,0,0,1,5,80.82L3,81.38A51.5,51.5,0,0,0,11.54,99ZM5,80.83a89.29,89.29,0,0,1-3-24.4H0A91.33,91.33,0,0,0,3,81.37ZM2,56.43A88.68,88.68,0,0,1,5,32L3,31.47a91,91,0,0,0-3,25ZM5,32a49.35,49.35,0,0,1,8.15-16.91l-1.57-1.24A51.5,51.5,0,0,0,3,31.47Zm8.15-16.91A32.59,32.59,0,0,1,25.27,5.28l-.84-1.81A34.52,34.52,0,0,0,11.54,13.88ZM25.27,5.28A36.05,36.05,0,0,1,40.6,2V0A37.87,37.87,0,0,0,24.43,3.47ZM40.6,2A36.05,36.05,0,0,1,55.93,5.28l.84-1.81A37.87,37.87,0,0,0,40.6,0ZM55.94,5.29a32.21,32.21,0,0,1,12.3,9.83l1.57-1.24A34.26,34.26,0,0,0,56.76,3.46Zm12.3,9.83A48.61,48.61,0,0,1,76.46,32l1.93-.56a50.6,50.6,0,0,0-8.58-17.59ZM76.47,32a87,87,0,0,1,3,24.4h2a88.49,88.49,0,0,0-3.12-25ZM62.38,56.43a92.68,92.68,0,0,0-1.75-19.72l-2,.43a90.66,90.66,0,0,1,1.71,19.29ZM60.63,36.71a39.49,39.49,0,0,0-4.79-12.62l-1.68,1.07a37.69,37.69,0,0,1,4.51,12ZM55.85,24.1a17.22,17.22,0,0,0-7-6.75L48,19.15a15.41,15.41,0,0,1,6.18,6Zm-7-6.74a18.22,18.22,0,0,0-8.25-2v2A16.23,16.23,0,0,1,48,19.14Zm-8.25-2a18,18,0,0,0-8.17,2l.89,1.78a16.13,16.13,0,0,1,7.28-1.76Zm-8.16,2A17.5,17.5,0,0,0,25.5,24.1l1.7,1a15.46,15.46,0,0,1,6.11-6ZM25.5,24.1a40.71,40.71,0,0,0-4.7,12.61l1.95.43a39.08,39.08,0,0,1,4.45-12ZM20.8,36.72a96.62,96.62,0,0,0-1.68,19.71h2a94.81,94.81,0,0,1,1.63-19.3ZM19.12,56.43a96.58,96.58,0,0,0,1.68,19.7l1.95-.41a94.77,94.77,0,0,1-1.63-19.29ZM20.8,76.14a40.71,40.71,0,0,0,4.7,12.61l1.7-1a39.08,39.08,0,0,1-4.45-12Zm4.7,12.61a18.15,18.15,0,0,0,6.92,6.82l.91-1.79A16,16,0,0,1,27.2,87.7Zm6.94,6.83a18.68,18.68,0,0,0,8.16,1.89v-2a16.63,16.63,0,0,1-7.29-1.7Zm8.16,1.89a18.85,18.85,0,0,0,8.23-1.89L48,93.77a16.78,16.78,0,0,1-7.37,1.7Zm8.25-1.9a17.84,17.84,0,0,0,7-6.82l-1.7-1A15.92,15.92,0,0,1,48,93.78Zm7-6.81a39.49,39.49,0,0,0,4.79-12.62l-2-.43a37.69,37.69,0,0,1-4.51,12Zm4.79-12.62a92.65,92.65,0,0,0,1.75-19.71h-2a90.62,90.62,0,0,1-1.71,19.28ZM143.14,3.25l-.34.94h0Zm17.55,16,.91-.4ZM161.36,43l-.94-.33h0Zm-4.72,9.75-.84-.54h0Zm-6.9,9-.74-.67Zm-8.33,8.85.72.7h0ZM117,95.58l-.71-.7-2.67,2.72,3.66-1.06ZM124,94l.15,1h0Zm39.15,1.13-.7.7v0h0Zm1.8,15.52v1h1v-1Zm-74.4,0h-1v1h1Zm.75-10.05-.92-.38v0h0Zm2.55-3.75.71.71h0Zm32.93-33,.7.71h0Zm7.35-8-.76-.66h0Zm5.47-7.58-.86-.51h0ZM143,40.68l-1-.3h0Zm.07-15-.94.35h0Zm-3.22-5-.7.72Zm-5-3-.34.94h0ZM117.34,20l-.62-.8h0Zm-6,9.07-1-.29h0Zm-2.48,4.13.59.8h0Zm-6.67,1-.18,1h0Zm-9.75-1.72-1-.15-.14,1,1,.17Zm4.35-13.65.87.48h0Zm8-9.83.63.78h0ZM115.91,3l.3,1h0Zm13.5-1A39.06,39.06,0,0,1,142.8,4.19l.68-1.88A41.28,41.28,0,0,0,129.41,0Zm13.4,2.19a29.43,29.43,0,0,1,10.3,6l1.35-1.47a31.43,31.43,0,0,0-11-6.43Zm10.3,6a27.48,27.48,0,0,1,6.66,9.41l1.83-.79a29.22,29.22,0,0,0-7.14-10.09Zm6.66,9.41a30.5,30.5,0,0,1,2.39,12.28h2a32.33,32.33,0,0,0-2.56-13.07Zm2.39,12.28a32.1,32.1,0,0,1-1.74,10.77l1.88.66a33.92,33.92,0,0,0,1.86-11.43Zm-1.75,10.78a42.93,42.93,0,0,1-4.61,9.53l1.68,1.08a45.17,45.17,0,0,0,4.83-10Zm-4.62,9.54A63.3,63.3,0,0,1,149,61.08l1.48,1.34a64.19,64.19,0,0,0,7-9.14ZM149,61.08c-2.65,2.89-5.41,5.83-8.31,8.82l1.44,1.39q4.37-4.5,8.35-8.87Zm-8.3,8.82-24.45,25,1.43,1.39,24.45-25ZM117.24,96.54A52.84,52.84,0,0,1,124.16,95l-.3-2a56.05,56.05,0,0,0-7.18,1.6ZM124.18,95a36.7,36.7,0,0,1,6.43-.59v-2a40.44,40.44,0,0,0-6.77.61Zm6.43-.59h27.83v-2H130.61Zm27.83,0a5.42,5.42,0,0,1,4,1.43l1.41-1.41a7.37,7.37,0,0,0-5.43-2Zm4.05,1.46A4.74,4.74,0,0,1,164,99.55h2a6.71,6.71,0,0,0-2.12-5.16ZM164,99.55v11.1h2V99.55Zm1,10.1H90.56v2H165Zm-73.4,1V104.5h-2v6.15Zm0-6.15a10.09,10.09,0,0,1,.69-3.55l-1.88-.7a12.34,12.34,0,0,0-.81,4.25Zm.68-3.52a10.12,10.12,0,0,1,2.33-3.42l-1.42-1.42a12.44,12.44,0,0,0-2.76,4.08Zm2.33-3.42,32.92-33-1.41-1.42-32.93,33Zm32.93-33q4.14-4.21,7.4-8.08l-1.53-1.29q-3.19,3.8-7.3,8Zm7.39-8.07a51.44,51.44,0,0,0,5.59-7.73l-1.73-1a50.1,50.1,0,0,1-5.37,7.42Zm5.58-7.72A33.59,33.59,0,0,0,144,41L142,40.39a32.11,32.11,0,0,1-3.28,7.35ZM143.94,41a28.7,28.7,0,0,0,1.25-8.47h-2A26.59,26.59,0,0,1,142,40.38Zm1.25-8.47a19.76,19.76,0,0,0-1.2-7.18l-1.86.71a18.15,18.15,0,0,1,1.06,6.47ZM144,25.32a14.4,14.4,0,0,0-3.47-5.39l-1.39,1.44a12.26,12.26,0,0,1,3,4.66Zm-3.47-5.39a14.14,14.14,0,0,0-5.4-3.23l-.64,1.9a12,12,0,0,1,4.65,2.77Zm-5.37-3.22a19.52,19.52,0,0,0-6.8-1.11v2a17.67,17.67,0,0,1,6.11,1Zm-6.8-1.11a18.47,18.47,0,0,0-11.64,3.58L118,20.77a16.43,16.43,0,0,1,10.41-3.17Zm-11.64,3.59a18.72,18.72,0,0,0-6.34,9.57l1.91.58A16.78,16.78,0,0,1,118,20.76Zm-6.34,9.58a6.8,6.8,0,0,1-2.13,3.61L109.47,34a8.76,8.76,0,0,0,2.83-4.64Zm-2.11,3.6a6,6,0,0,1-3.61,1v2a7.91,7.91,0,0,0,4.79-1.4Zm-3.61,1a13.54,13.54,0,0,1-2.31-.22l-.33,2a17,17,0,0,0,2.64.24Zm-2.3-.21-9.75-1.73-.35,2L102,35.13Zm-8.93-.6a38.79,38.79,0,0,1,4.23-13.31l-1.75-1a40.65,40.65,0,0,0-4.46,14Zm4.24-13.32a31.44,31.44,0,0,1,7.77-9.52l-1.26-1.56A33.48,33.48,0,0,0,95.91,18.3Zm7.77-9.52A31.94,31.94,0,0,1,116.21,4l-.6-1.91a34.12,34.12,0,0,0-11.43,6.1ZM116.22,4a42.72,42.72,0,0,1,13.19-2V0a45,45,0,0,0-13.8,2.07Z"/></g></g></svg>