<svg xmlns="http://www.w3.org/2000/svg" fill="#6953a8" stroke="#6953a8" viewBox="0 0 165.44 112.85"><defs></defs><g ><g ><path  d="M77.43,81.1l-1-.28h0ZM69,98.35l-.79-.62h0Zm-12.68,10.2.41.91h0Zm-31.5,0-.42.91h0ZM12.32,98.35l-.78.62ZM4,81.1l-1,.27H3ZM4,31.75,5,32ZM12.32,14.5l-.78-.62ZM24.85,4.38l.42.9h0Zm31.5,0-.42.9h0ZM69,14.5l-.79.62h0Zm8.4,17.25-1,.28h0ZM59.65,36.93l-1,.21ZM55,24.63l-.85.52h0Zm-6.6-6.38-.45.89h0Zm-15.52,0,.43.9h0Zm-6.53,6.38-.85-.53Zm-4.58,12.3-1-.22h0Zm0,39-1,.2h0Zm4.58,12.29-.85.53Zm6.53,6.46-.46.89h0Zm15.52,0,.43.9h0ZM55,88.22l-.84-.53h0ZM79.5,56.43a87.51,87.51,0,0,1-3,24.39l1.91.56A89,89,0,0,0,81.5,56.43Zm-3,24.39a48.61,48.61,0,0,1-8.22,16.91L69.81,99a50.6,50.6,0,0,0,8.58-17.59ZM68.24,97.73a32.87,32.87,0,0,1-12.31,9.91l.84,1.82A35,35,0,0,0,69.81,99Zm-12.3,9.91a36.67,36.67,0,0,1-15.34,3.21v2a38.68,38.68,0,0,0,16.16-3.39ZM40.6,110.85a36.67,36.67,0,0,1-15.34-3.21l-.82,1.82a38.68,38.68,0,0,0,16.16,3.39Zm-15.33-3.2a33.4,33.4,0,0,1-12.16-9.92L11.54,99a35.27,35.27,0,0,0,12.89,10.49ZM13.11,97.73A49.35,49.35,0,0,1,5,80.82L3,81.38A51.5,51.5,0,0,0,11.54,99ZM5,80.83a89.29,89.29,0,0,1-3-24.4H0A91.33,91.33,0,0,0,3,81.37ZM2,56.43A88.68,88.68,0,0,1,5,32L3,31.47a91,91,0,0,0-3,25ZM5,32a49.35,49.35,0,0,1,8.15-16.91l-1.57-1.24A51.5,51.5,0,0,0,3,31.47Zm8.15-16.91A32.59,32.59,0,0,1,25.27,5.28l-.84-1.81A34.52,34.52,0,0,0,11.54,13.88ZM25.27,5.28A36.05,36.05,0,0,1,40.6,2V0A37.87,37.87,0,0,0,24.43,3.47ZM40.6,2A36.05,36.05,0,0,1,55.93,5.28l.84-1.81A37.87,37.87,0,0,0,40.6,0ZM55.94,5.29a32.21,32.21,0,0,1,12.3,9.83l1.57-1.24A34.26,34.26,0,0,0,56.76,3.46Zm12.3,9.83A48.61,48.61,0,0,1,76.46,32l1.93-.56a50.6,50.6,0,0,0-8.58-17.59ZM76.47,32a87,87,0,0,1,3,24.4h2a88.49,88.49,0,0,0-3.12-25ZM62.38,56.43a92.68,92.68,0,0,0-1.75-19.72l-2,.43a90.66,90.66,0,0,1,1.71,19.29ZM60.63,36.71a39.49,39.49,0,0,0-4.79-12.62l-1.68,1.07a37.69,37.69,0,0,1,4.51,12ZM55.85,24.1a17.22,17.22,0,0,0-7-6.75L48,19.15a15.41,15.41,0,0,1,6.18,6Zm-7-6.74a18.22,18.22,0,0,0-8.25-2v2A16.23,16.23,0,0,1,48,19.14Zm-8.25-2a18,18,0,0,0-8.17,2l.89,1.78a16.13,16.13,0,0,1,7.28-1.76Zm-8.16,2A17.5,17.5,0,0,0,25.5,24.1l1.7,1a15.46,15.46,0,0,1,6.11-6ZM25.5,24.1a40.71,40.71,0,0,0-4.7,12.61l1.95.43a39.08,39.08,0,0,1,4.45-12ZM20.8,36.72a96.62,96.62,0,0,0-1.68,19.71h2a94.81,94.81,0,0,1,1.63-19.3ZM19.12,56.43a96.58,96.58,0,0,0,1.68,19.7l1.95-.41a94.77,94.77,0,0,1-1.63-19.29ZM20.8,76.14a40.71,40.71,0,0,0,4.7,12.61l1.7-1a39.08,39.08,0,0,1-4.45-12Zm4.7,12.61a18.15,18.15,0,0,0,6.92,6.82l.91-1.79A16,16,0,0,1,27.2,87.7Zm6.94,6.83a18.68,18.68,0,0,0,8.16,1.89v-2a16.63,16.63,0,0,1-7.29-1.7Zm8.16,1.89a18.85,18.85,0,0,0,8.23-1.89L48,93.77a16.78,16.78,0,0,1-7.37,1.7Zm8.25-1.9a17.84,17.84,0,0,0,7-6.82l-1.7-1A15.92,15.92,0,0,1,48,93.78Zm7-6.81a39.49,39.49,0,0,0,4.79-12.62l-2-.43a37.69,37.69,0,0,1-4.51,12Zm4.79-12.62a92.65,92.65,0,0,0,1.75-19.71h-2a90.62,90.62,0,0,1-1.71,19.28Zm43.81,20.64v-1h-1v1Zm22,0v1h1v-1Zm.23-70.95,1,.05.13-2.3L126,25.06ZM111,38.88l-.65-.77h0ZM109,40l-.27-1h0Zm-4.72-.3-.49.87,0,0h0Zm-1.8-1.5.8-.59h0Zm-5.85-8L96,29.41l-.71.6.55.75ZM129.71,2.05v-1h-.37l-.28.24Zm15.23,0h1v-1h-1Zm0,94.73h-1v1h1Zm19.5,0h1v-1h-1Zm0,13.87v1h1v-1Zm-60,0h-1v1h1Zm0-12.87h22v-2h-22Zm23-1V33.55h-2V96.78Zm0-63.23c0-2.43.08-5,.22-7.67l-2-.11q-.23,4.08-.23,7.78ZM126,25.06,110.39,38.11l1.29,1.53,15.6-13ZM110.39,38.11a4.48,4.48,0,0,1-1.65.93l.55,1.92a6.51,6.51,0,0,0,2.39-1.32Zm-1.67.93a5.37,5.37,0,0,1-1.66.26v2a7.87,7.87,0,0,0,2.25-.34Zm-1.66.26a5.5,5.5,0,0,1-2.35-.5l-.85,1.8a7.37,7.37,0,0,0,3.2.7Zm-2.28-.47a4.62,4.62,0,0,1-1.49-1.22l-1.61,1.18a6.49,6.49,0,0,0,2.12,1.78Zm-1.49-1.22-5.85-8-1.61,1.17,5.85,8Zm-6-6.67L130.36,2.81l-1.3-1.52L96,29.41ZM129.71,3.05h15.23v-2H129.71Zm14.23-1V96.78h2V2.05Zm1,95.73h19.5v-2h-19.5Zm18.5-1v13.87h2V96.78Zm1,12.87h-60v2h60Zm-59,1V96.78h-2v13.87Z"/></g></g></svg>