 <svg
                                                        xmlns="http://www.w3.org/2000/svg"
                                                        version="1.1"
                                                        xmlns:xlink="http://www.w3.org/1999/xlink"
                                                        width="512"
                                                        height="512"
                                                        x="0"
                                                        y="0"
                                                        viewBox="0 0 64 64"
                                                        xml:space="preserve"
                                                        stroke="currentColor"
                                                    >
                                                        <g>
                                                            <path
                                                                d="M39.45 47.11a1.005 1.005 0 0 0-1.342.438 7.13 7.13 0 0 1-12.215 0 1 1 0 0 0-1.788.9 9.121 9.121 0 0 0 15.79 0 .998.998 0 0 0-.444-1.338ZM25.105 37.447a1 1 0 0 0 1.79-.894A4.693 4.693 0 0 0 23 34a4.693 4.693 0 0 0-3.895 2.553 1 1 0 0 0 1.787.9A2.725 2.725 0 0 1 23 36a2.723 2.723 0 0 1 2.105 1.447ZM41 34a4.693 4.693 0 0 0-3.895 2.553 1 1 0 0 0 1.787.9A2.725 2.725 0 0 1 41 36a2.724 2.724 0 0 1 2.108 1.453 1 1 0 0 0 1.787-.9A4.693 4.693 0 0 0 41 34Z"
                                                                fill="currentColor"
                                                                opacity="1"
                                                                data-original="currentColor"
                                                                stroke="currentColor"
                                                            ></path>
                                                            <path
                                                                d="M44.076 18h-.083c-4.759.032-9.136 2.927-11.993 7.84-2.857-4.913-7.234-7.808-11.993-7.84h-.083A14.595 14.595 0 0 0 9.79 22.378 16.247 16.247 0 0 0 5 34c0 14.774 25.427 29.262 26.51 29.872a1.002 1.002 0 0 0 .98 0C33.574 63.262 59 48.774 59 34a16.247 16.247 0 0 0-4.79-11.622A14.595 14.595 0 0 0 44.076 18ZM32 61.843C28.456 59.75 7 46.548 7 34a14.26 14.26 0 0 1 4.2-10.204A12.585 12.585 0 0 1 19.923 20h.07c4.504.03 8.653 3.179 11.1 8.423a1 1 0 0 0 1.813 0c2.448-5.244 6.597-8.393 11.1-8.423h.07a12.586 12.586 0 0 1 8.724 3.796A14.26 14.26 0 0 1 57 34c0 12.548-21.456 25.749-25 27.843Z"
                                                                fill="currentColor"
                                                                opacity="1"
                                                                data-original="currentColor"
                                                                stroke="currentColor"
                                                            ></path>
                                                            <path
                                                                d="M16.553 23.105C16.285 23.24 10 26.445 10 32a1 1 0 0 0 2 0c0-4.313 5.394-7.079 5.448-7.106a1 1 0 0 0-.895-1.789ZM10 35h2v2h-2zM5 4a1 1 0 0 0 1-1V1a1 1 0 0 0-2 0v2a1 1 0 0 0 1 1ZM6 9V7a1 1 0 0 0-2 0v2a1 1 0 0 0 2 0ZM7 6h2a1 1 0 0 0 0-2H7a1 1 0 0 0 0 2ZM3 4H1a1 1 0 0 0 0 2h2a1 1 0 0 0 0-2ZM59 12a1 1 0 0 0 1-1V9a1 1 0 0 0-2 0v2a1 1 0 0 0 1 1ZM59 14a1 1 0 0 0-1 1v2a1 1 0 0 0 2 0v-2a1 1 0 0 0-1-1ZM63 12h-2a1 1 0 0 0 0 2h2a1 1 0 0 0 0-2ZM55 14h2a1 1 0 0 0 0-2h-2a1 1 0 0 0 0 2ZM29 9a1 1 0 0 0 1-1V6a1 1 0 0 0-2 0v2a1 1 0 0 0 1 1ZM29 11a1 1 0 0 0-1 1v2a1 1 0 0 0 2 0v-2a1 1 0 0 0-1-1ZM31 11h2a1 1 0 0 0 0-2h-2a1 1 0 0 0 0 2ZM25 11h2a1 1 0 0 0 0-2h-2a1 1 0 0 0 0 2ZM47 9a3 3 0 1 0-3-3 3.003 3.003 0 0 0 3 3Zm0-4a1 1 0 1 1-1 1 1.001 1.001 0 0 1 1-1ZM15 16a3 3 0 1 0-3-3 3.003 3.003 0 0 0 3 3Zm0-4a1 1 0 1 1-1 1 1.001 1.001 0 0 1 1-1Z"
                                                                fill="currentColor"
                                                                opacity="1"
                                                                data-original="currentColor"
                                                                stroke="currentColor"
                                                            ></path>
                                                        </g>
                                                    </svg>